<svg width="40cm" height="60cm" version="1.1" viewBox="0 0 400 600" xml:space="preserve" xmlns="http://www.w3.org/2000/svg"><g transform="translate(0 303)"><rect x=".1095" y="-302.89" width="399.78" height="599.78" fill="#feffff" stroke="#000" stroke-linecap="square" stroke-width=".21899"/><rect x="8.0737" y="-294.93" width="383.85" height="583.85" rx="30.792" ry="30.516" fill="none" stroke="#000005" stroke-linecap="square" stroke-width="6.1473"/><g transform="matrix(.5463 0 0 .5463 36.111 -276.11)"><g fill-rule="evenodd"><path d="m600 300c0.0277 165.68-134.29 300-300 300-165.71 0-300.03-134.32-300-300-0.0277-165.68 134.29-300 300-300 165.71 0 300.03 134.32 300 300z"/><path d="m597 299.95c0 164.03-132.97 297-297 297s-297-132.97-297-297c0-164.03 132.97-297 297-297s297 132.97 297 297z" fill="#fff"/><path d="m300 8.9498c-160.71 0-291 130.29-291 291s130.29 291 291 291c160.71 0 291-130.29 291-291 0-160.71-130.29-291-291-291z" fill="#00408b"/></g><path d="m339.93 541.43v-271.48c0-2.5213 2.0457-4.567 4.5501-4.567 0.59374 0 1.1762 0.1209 1.6827 0.3124l72.019 24.357c1.1762 0.3348 2.4171 0.529 3.6946 0.529 7.1895 0 13.014-5.8416 13.014-13.02 0-2.5438-0.72598-4.9075-1.9894-6.9138l-133.25-212.18-132.57 212.18c-1.2634 2.0063-1.9838 4.37-1.9838 6.9138 0 7.1782 5.8191 13.02 13.014 13.02 1.2803 0 2.5072-0.1914 3.6778-0.529l71.397-24.357c0.51774-0.1914 1.0946-0.3124 1.6771-0.3124 2.5213 0 4.5557 2.0457 4.5557 4.567v271.48h80.508" fill="#fff"/></g><path d="m135.61 86.939v92.596h195.35v-92.596zm-51.178 25.946-15.393 39.752v53.479h7.9345c0-15.377 12.474-27.85 27.85-27.85 15.377 0 27.93 12.474 27.93 27.85h113.62c0-9.8132 5.0998-18.444 12.775-23.407h-126.71v-69.824zm4.4433 10.553h36.499v26.581h-46.735zm16.028 58.954c-13.079 0-23.724 10.566-23.724 23.645 0 13.079 10.645 23.724 23.724 23.724 13.079 0 23.645-10.645 23.645-23.724 0-13.079-10.566-23.645-23.645-23.645zm169.4 0c-13.079 0-23.724 10.566-23.724 23.645 0 13.079 10.645 23.724 23.724 23.724 13.079 0 23.645-10.645 23.645-23.724 0-13.079-10.566-23.645-23.645-23.645zm14.996 0.31739c7.1117 4.5984 12.016 12.344 12.695 21.265l28.961-12.299v-8.966zm-184.4 12.14c6.1859 0 11.188 5.0018 11.188 11.188-3e-5 6.186-5.0018 11.267-11.188 11.267-6.186 0-11.188-5.0811-11.188-11.267 0-6.1859 5.0018-11.188 11.188-11.188zm169.4 0c6.186 0 11.188 5.0018 11.188 11.188 4e-5 6.186-5.0018 11.267-11.188 11.267s-11.188-5.0811-11.188-11.267c0-6.1859 5.0018-11.188 11.188-11.188z" fill-rule="evenodd"/></g></svg>
