<?xml version="1.0" encoding="UTF-8" standalone="no"?>
<svg
   id="svg2"
   height="600"
   width="600"
   version="1.0"
   sodipodi:docname="direzione_obbligatoria_dritto-sx.svg"
   inkscape:version="1.2 (dc2aedaf03, 2022-05-15)"
   xml:space="preserve"
   xmlns:inkscape="http://www.inkscape.org/namespaces/inkscape"
   xmlns:sodipodi="http://sodipodi.sourceforge.net/DTD/sodipodi-0.dtd"
   xmlns="http://www.w3.org/2000/svg"
   xmlns:svg="http://www.w3.org/2000/svg"
   xmlns:rdf="http://www.w3.org/1999/02/22-rdf-syntax-ns#"
   xmlns:cc="http://creativecommons.org/ns#"
   xmlns:dc="http://purl.org/dc/elements/1.1/"><sodipodi:namedview
     id="namedview11"
     pagecolor="#ffffff"
     bordercolor="#666666"
     borderopacity="1.0"
     inkscape:pageshadow="2"
     inkscape:pageopacity="0.0"
     inkscape:pagecheckerboard="0"
     showgrid="false"
     inkscape:zoom="1.3566667"
     inkscape:cx="300"
     inkscape:cy="300"
     inkscape:window-width="1920"
     inkscape:window-height="1017"
     inkscape:window-x="-8"
     inkscape:window-y="-8"
     inkscape:window-maximized="1"
     inkscape:current-layer="svg2"
     inkscape:showpageshadow="2"
     inkscape:deskcolor="#d1d1d1" /><metadata
     id="metadata12"><rdf:RDF><cc:Work
         rdf:about=""><dc:format>image/svg+xml</dc:format><dc:type
           rdf:resource="http://purl.org/dc/dcmitype/StillImage" /><cc:license
           rdf:resource="http://creativecommons.org/publicdomain/zero/1.0/" /></cc:Work><cc:License
         rdf:about="http://creativecommons.org/publicdomain/zero/1.0/"><cc:permits
           rdf:resource="http://creativecommons.org/ns#Reproduction" /><cc:permits
           rdf:resource="http://creativecommons.org/ns#Distribution" /><cc:permits
           rdf:resource="http://creativecommons.org/ns#DerivativeWorks" /></cc:License></rdf:RDF></metadata><defs
     id="defs4" /><g
     transform="matrix(2.9999992,0,0,2.9999992,-776.09446,52.48768)"
     id="g1882" /><g
     transform="matrix(2.9999992,0,0,2.9999992,-471.70576,24.4905)"
     id="g2461" /><path
     id="path2683"
     style="fill:#000000;fill-opacity:1;fill-rule:evenodd;stroke:none"
     d="m 600.00001,300 c 0.0277,165.67729 -134.29498,300 -300,300 C 134.29497,600 -0.02772571,465.67729 4.2927282e-6,300 -0.02769571,134.3227 134.29497,0 300.00001,0 c 165.70502,0 300.02773,134.3227 300,300 l 0,0 z" /><path
     id="path2685"
     style="fill:#ffffff;fill-opacity:1;fill-rule:evenodd;stroke:none"
     d="m 596.99995,299.94978 c 0,164.02853 -132.97139,296.99993 -296.99993,296.99993 -164.02854,0 -296.9999357,-132.9714 -296.9999357,-296.99993 0,-164.02854 132.9713957,-296.99994 296.9999357,-296.99994 164.02854,0 296.99993,132.9714 296.99993,296.99994 l 0,0 z" /><path
     id="path1877"
     d="m 300.00001,8.94985 c -160.71485,0 -290.9999157,130.28507 -290.9999157,290.99992 0,160.71485 130.2850757,290.99989 290.9999157,290.99992 160.71485,0 290.99989,-130.28507 290.99992,-290.99992 0,-160.71486 -130.28507,-290.99992 -290.99992,-290.99992 z"
     style="fill:#00408b;fill-opacity:1;fill-rule:evenodd;stroke:none" /><path
     id="rect529"
     style="fill:#ffffff;stroke:none;stroke-width:1.50236;stroke-linecap:square;paint-order:stroke fill markers"
     d="m 384.84886,36.167043 109.08697,182.561987 -2.87991,8.70439 -7.48826,1.53441 -66.68797,-18.361 V 547.6356 h -61.94766 v -78.8881 c -3.35343,-12.84842 -27.3194,-89.25142 -121.18876,-71.28599 -0.0605,0.0119 -0.11036,0.017 -0.17079,0.0285 l 21.93954,64.70594 -1.7,10.15339 -12.55463,0.92117 L 59.98402,369.56297 242.54598,260.476 l 8.7044,2.87991 1.53438,7.48826 -17.97544,65.28813 c 7.90638,-0.82634 79.10755,-7.03752 120.12271,32.33875 V 210.43087 l -62.71615,21.26419 -10.1534,-1.7 -0.92116,-12.5546 z" /></svg>
