<svg width="600" height="600" version="1.0" xmlns="http://www.w3.org/2000/svg">
 <g fill-rule="evenodd">
  <path d="m600 300c0.0277 165.68-134.29 300-300 300-165.71 0-300.03-134.32-300-300-0.0277-165.68 134.29-300 300-300 165.71 0 300.03 134.32 300 300z"/>
  <path d="m597 299.95c0 164.03-132.97 297-297 297s-297-132.97-297-297c0-164.03 132.97-297 297-297s297 132.97 297 297z" fill="#fff"/>
  <path d="m300 8.9498c-160.71 0-291 130.29-291 291s130.29 291 291 291c160.71 0 291-130.29 291-291 0-160.71-130.29-291-291-291z" fill="#00408b"/>
 </g>
 <g transform="translate(0,16)" fill="#fff" fill-rule="evenodd">
  <path d="m364.28 148.64c1.0292 0.11511 2.156 0.35182 3.3538 0.66313 13.174 3.4237 170.89 42.211 170.89 42.211 6.4422 1.763 10.114 4.0266 11.05 6.9283 1.027 3.1844-1.2406 7.1374-6.7566 12.041 0 0-123.96 107.16-134.3 116.01-10.027 8.5869-16.591 1.713-16.484-6.63-0.14965-17.074-1.9296-34.065-3.6497-51.028-31.709 3.1931-61.231 23.455-61.231 68.065v124.55h-54.527v-122.67c0-76.652 46.248-118.48 102.1-129.2-5.4394-16.053-11.956-31.884-18.992-47.338-2.3467-4.657-2.1245-9.9307 1.4789-12.371 1.6216-1.0979 3.9836-1.5767 7.0712-1.2314z"/>
  <path d="m234.16 148.64c-1.0292 0.11511-2.156 0.35182-3.3538 0.66313-13.174 3.4237-170.89 42.211-170.89 42.211-6.4422 1.763-10.114 4.0266-11.05 6.9283-1.027 3.1844 1.2406 7.1374 6.7566 12.041 0 0 123.96 107.16 134.3 116.01 10.027 8.5869 16.591 1.713 16.484-6.63 0.14965-17.074 1.9296-34.065 3.6497-51.028 31.709 3.1931 61.231 23.455 61.231 68.065v124.55h54.527v-122.67c0-76.652-46.248-118.48-102.1-129.2 5.4394-16.053 11.956-31.884 18.992-47.338 2.3467-4.657 2.1245-9.9307-1.4789-12.371-1.6216-1.0979-3.9836-1.5767-7.0712-1.2314z"/>
 </g>
</svg>
