<svg width="600" height="600" version="1.0" xmlns="http://www.w3.org/2000/svg">
 <g fill-rule="evenodd">
  <path d="m600 300c0.0277 165.68-134.29 300-300 300-165.71 0-300.03-134.32-300-300-0.0277-165.68 134.29-300 300-300 165.71 0 300.03 134.32 300 300z"/>
  <path d="m597 299.95c0 164.03-132.97 297-297 297s-297-132.97-297-297c0-164.03 132.97-297 297-297s297 132.97 297 297z" fill="#fff"/>
  <path d="m300 8.9498c-160.71 0-291 130.29-291 291s130.29 291 291 291c160.71 0 291-130.29 291-291 0-160.71-130.29-291-291-291z" fill="#00408b"/>
 </g>
 <path d="m541.48 339.88h-271.48c-2.5213 0-4.567 2.0457-4.567 4.5501 0 0.59374 0.1209 1.1762 0.3124 1.6827l24.357 72.019c0.3348 1.1762 0.529 2.4171 0.529 3.6946 0 7.1895-5.8416 13.014-13.02 13.014-2.5438 0-4.9075-0.72598-6.9138-1.9894l-212.18-133.25 212.18-132.57c2.0063-1.2634 4.37-1.9838 6.9138-1.9838 7.1782 0 13.02 5.8191 13.02 13.014 0 1.2803-0.1914 2.5072-0.529 3.6778l-24.357 71.397c-0.1914 0.51774-0.3124 1.0946-0.3124 1.6771 0 2.5213 2.0457 4.5557 4.567 4.5557h271.48v80.508" fill="#fff"/>
</svg>
