<?xml version="1.0" encoding="UTF-8" standalone="no"?>
<svg
   id="svg2"
   height="600"
   width="600"
   version="1.0"
   xmlns="http://www.w3.org/2000/svg"
   xmlns:svg="http://www.w3.org/2000/svg"
   xmlns:rdf="http://www.w3.org/1999/02/22-rdf-syntax-ns#"
   xmlns:cc="http://creativecommons.org/ns#"
   xmlns:dc="http://purl.org/dc/elements/1.1/">
  <metadata
     id="metadata12">
    <rdf:RDF>
      <cc:Work
         rdf:about="">
        <dc:format>image/svg+xml</dc:format>
        <dc:type
           rdf:resource="http://purl.org/dc/dcmitype/StillImage" />
        <cc:license
           rdf:resource="http://creativecommons.org/publicdomain/zero/1.0/" />
      </cc:Work>
      <cc:License
         rdf:about="http://creativecommons.org/publicdomain/zero/1.0/">
        <cc:permits
           rdf:resource="http://creativecommons.org/ns#Reproduction" />
        <cc:permits
           rdf:resource="http://creativecommons.org/ns#Distribution" />
        <cc:permits
           rdf:resource="http://creativecommons.org/ns#DerivativeWorks" />
      </cc:License>
    </rdf:RDF>
  </metadata>
  <defs
     id="defs4">
    <rect
       x="331.03448"
       y="413.02682"
       width="300.38313"
       height="400"
       id="rect2379" />
    <rect
       x="133.33333"
       y="206.13027"
       width="343.29503"
       height="380.07662"
       id="rect2317" />
  </defs>
  <path
     transform="matrix(1.1528863,0,0,1.1528863,668.49307,829.00666)"
     d="m -60.711182,-458.85416 a 258.91537,258.91537 0 1 1 -517.830748,0 258.91537,258.91537 0 1 1 517.830748,0 z"
     id="path2367"
     style="fill:#ffffff;fill-opacity:1;fill-rule:nonzero;stroke:#000000;stroke-width:2.60216475;stroke-linecap:round;stroke-linejoin:round;stroke-miterlimit:2;stroke-opacity:1;stroke-dasharray:none;stroke-dashoffset:0" />
  <path
     style="fill:#d40000;fill-opacity:1;fill-rule:nonzero;stroke:none"
     id="path2954"
     d="m -60.711182,-458.85416 a 258.91537,258.91537 0 1 1 -517.830748,0 258.91537,258.91537 0 1 1 517.830748,0 z"
     transform="matrix(1.1200571,0,0,1.1200571,657.99998,813.94285)" />
  <path
     transform="matrix(0.8303871,0,0,0.8303871,565.41376,681.02656)"
     d="m -60.711182,-458.85416 a 258.91537,258.91537 0 1 1 -517.830748,0 258.91537,258.91537 0 1 1 517.830748,0 z"
     id="path2956"
     style="fill:#ffffff;fill-opacity:1;fill-rule:nonzero;stroke:none" />
  <g
     id="layer1">
    <g
       aria-label="X"
       transform="translate(-8,-97.7148)"
       id="text2315"
       style="font-size:333.333px;line-height:1.25;letter-spacing:0px;word-spacing:0px;white-space:pre;shape-inside:url(#rect2317)">
      <path
         d="m 271.84296,506.38204 -47.20047,-91.3085 -47.20048,91.3085 h -41.66662 l 65.1041,-120.60535 -59.73301,-108.72385 h 41.66662 l 41.82939,81.05461 41.66662,-81.05461 h 41.50387 l -57.12885,108.72385 62.49994,120.60535 z"
         style="font-weight:bold;font-stretch:condensed;font-family:'Liberation Sans Narrow';-inkscape-font-specification:'Liberation Sans Narrow Bold Condensed'"
         id="path319" />
    </g>
    <g
       aria-label="t.
,xx"
       transform="translate(-26.432432,-215.01112)"
       id="text2377"
       style="font-size:166.667px;line-height:0.65;letter-spacing:0px;word-spacing:0px;white-space:pre;shape-inside:url(#rect2379)">
      <path
         d="m 368.06323,512.50224 q -2.76694,0.89518 -5.61525,1.38347 -2.84831,0.56966 -6.59181,0.56966 -14.40433,0 -14.40433,-19.93819 v -58.75663 h -8.38217 v -10.66083 h 8.87046 l 3.49935,-19.69405 h 8.05666 v 19.69405 h 13.34638 v 10.66083 h -13.34638 v 55.58279 q 0,6.34767 1.70899,8.95184 1.70899,2.5228 5.85938,2.5228 1.70899,0 3.3366,-0.32553 1.70899,-0.32552 3.66212,-0.8138 z"
         style="font-family:'Liberation Sans Narrow';-inkscape-font-specification:'Liberation Sans Narrow'"
         id="path322" />
      <path
         d="m 381.49099,513.15328 v -17.8223 h 13.10224 v 17.8223 z"
         style="font-family:'Liberation Sans Narrow';-inkscape-font-specification:'Liberation Sans Narrow'"
         id="path324" />
      <path
         d="m 356.75135,606.32933 v 13.67191 q 0,4.31316 -0.32552,7.81251 -0.24414,3.58074 -0.97656,6.59181 -0.65104,3.09246 -1.62761,5.77801 -0.97656,2.68555 -2.27865,5.28972 h -8.21942 q 3.01108,-5.28972 4.63868,-10.66083 1.62761,-5.3711 1.62761,-10.66082 h -5.85939 v -17.82231 z"
         style="font-family:'Liberation Sans Narrow';-inkscape-font-specification:'Liberation Sans Narrow'"
         id="path326" />
      <path
         d="m 422.5067,624.15164 -19.44991,-36.13289 -19.53129,36.13289 h -12.93948 l 25.7162,-45.24749 -24.4955,-42.80608 h 13.265 l 17.98507,34.26114 17.90368,-34.26114 h 13.42776 l -24.49549,42.64332 26.04172,45.41025 z"
         style="font-family:'Liberation Sans Narrow';-inkscape-font-specification:'Liberation Sans Narrow'"
         id="path328" />
      <path
         d="m 490.86621,624.15164 -19.44991,-36.13289 -19.53129,36.13289 h -12.93948 l 25.7162,-45.24749 -24.49549,-42.80608 h 13.265 l 17.98506,34.26114 17.90369,-34.26114 h 13.42776 l -24.49549,42.64332 26.04172,45.41025 z"
         style="font-family:'Liberation Sans Narrow';-inkscape-font-specification:'Liberation Sans Narrow'"
         id="path330" />
    </g>
  </g>
</svg>
