<?xml version="1.0" encoding="UTF-8" standalone="no"?>
<!-- Created with Inkscape (http://www.inkscape.org/) -->

<svg
   width="400mm"
   height="600mm"
   viewBox="0 0 400 600"
   version="1.1"
   id="svg5"
   inkscape:version="1.2 (dc2aedaf03, 2022-05-15)"
   sodipodi:docname="sosta_riservata.svg"
   xml:space="preserve"
   xmlns:inkscape="http://www.inkscape.org/namespaces/inkscape"
   xmlns:sodipodi="http://sodipodi.sourceforge.net/DTD/sodipodi-0.dtd"
   xmlns="http://www.w3.org/2000/svg"
   xmlns:svg="http://www.w3.org/2000/svg"><sodipodi:namedview
     id="namedview7"
     pagecolor="#ffffff"
     bordercolor="#666666"
     borderopacity="1.0"
     inkscape:showpageshadow="2"
     inkscape:pageopacity="0.0"
     inkscape:pagecheckerboard="0"
     inkscape:deskcolor="#d1d1d1"
     inkscape:document-units="mm"
     showgrid="false"
     inkscape:zoom="0.35895139"
     inkscape:cx="207.54899"
     inkscape:cy="1133.8583"
     inkscape:window-width="1920"
     inkscape:window-height="1017"
     inkscape:window-x="-8"
     inkscape:window-y="-8"
     inkscape:window-maximized="1"
     inkscape:current-layer="layer1" /><defs
     id="defs2" /><g
     inkscape:label="Livello 1"
     inkscape:groupmode="layer"
     id="layer1"><rect
       style="opacity:1;fill:none;fill-opacity:1;stroke:#000000;stroke-width:7.14477;stroke-linecap:square;stroke-linejoin:miter;stroke-miterlimit:4;stroke-dasharray:none;stroke-opacity:1;paint-order:stroke fill markers"
       id="rect61"
       width="385.94696"
       height="587.9126"
       x="7.8864565"
       y="6.412261"
       rx="20.501316"
       ry="20.326292" /><g
       id="g2697"
       transform="matrix(0.45008702,0,0,0.45008702,64.359645,50.354735)"><g
         transform="matrix(3,0,0,3,-776.09399,52.538009)"
         id="g1882" /><g
         transform="matrix(3,0,0,3,-471.70599,24.541009)"
         id="g2461" /><path
         id="path1873"
         style="fill:#000000;fill-opacity:1;fill-rule:evenodd;stroke:none"
         d="M 600,300 C 600.0277,465.67729 465.70502,600 300,600 134.29496,600 -0.02772571,465.67729 4.2927295e-6,300 -0.02772571,134.3227 134.29496,0 300,0 465.70502,0 600.02773,134.3227 600,300 Z" /><path
         id="path1875"
         style="fill:#ffffff;fill-opacity:1;fill-rule:evenodd;stroke:none"
         d="M 596.99993,300 C 596.99993,464.02853 464.02854,596.99993 300,596.99993 135.97146,596.99993 3.0000743,464.02853 3.0000743,300 3.0000743,135.97146 135.97146,3.0000675 300,3.0000675 464.02854,3.0000675 596.99993,135.97146 596.99993,300 Z" /><path
         id="path1877"
         d="M 300,9.00008 C 139.28515,9.00008 9.0000868,139.28515 9.0000868,300 9.0000868,460.71485 139.28516,590.99989 300,590.99992 460.71485,590.99992 590.99989,460.71485 590.99992,300 590.99992,139.28514 460.71485,9.00008 300,9.00008 Z m 0,74.99998 c 119.23194,0 215.99994,96.76797 215.99994,215.99994 0,53.37341 -19.44599,102.16956 -51.56248,139.87496 L 160.12504,135.56254 C 197.83043,103.44606 246.62662,84.00006 300,84.00006 Z M 133.50004,162.46879 437.53121,466.59371 C 400.16634,497.49253 352.23647,515.99994 300,515.99994 180.76807,515.99994 84.000067,419.23197 84.000067,300 c 0,-52.25846 18.577793,-100.15953 49.499973,-137.53121 z"
         style="fill:#d40000;fill-opacity:1;fill-rule:evenodd;stroke:none" /><path
         id="path2770"
         d="m 300,93.00006 c -47.62582,0 -91.47905,16.15348 -126.46872,43.21873 L 463.78121,426.46872 C 490.84645,391.47904 506.99994,347.62583 506.99994,300 506.99994,185.73603 414.26394,93.00006 300,93.00006 Z M 134.25004,175.96878 C 108.3392,210.53685 93.000067,253.50605 93.000067,300 c 0,114.26397 92.735993,206.99994 206.999933,206.99994 46.49393,0 89.46316,-15.33914 124.03122,-41.24998 z"
         style="fill:#00408b;fill-opacity:1;fill-rule:evenodd;stroke:#ffffff;stroke-width:11;stroke-miterlimit:4;stroke-dasharray:none;stroke-opacity:1" /></g><g
       id="g846"
       transform="matrix(0.20161493,0,0,0.20161493,57.820183,356.34599)"><rect
         ry="0"
         rx="0"
         y="1.5"
         x="1.5"
         height="597"
         width="597"
         id="rect2380"
         style="fill:#00408b;fill-opacity:1;fill-rule:nonzero;stroke:none;stroke-width:3;stroke-linecap:round;stroke-linejoin:round;stroke-miterlimit:2;stroke-dasharray:none;stroke-dashoffset:0;stroke-opacity:1" /><path
         id="rect2969"
         d="m 47.9866,8.00406 c -22.07351,0 -40,17.92649 -40,40 v 504 c 0,22.07351 17.92649,40 40,40 h 504 c 22.07351,0 40.00003,-17.92648 40,-40 v -504 c 0,-22.07351 -17.92646,-40 -40,-40 z m 0,10 h 504 c 16.70652,0 30,13.29351 30,30 v 504 c 3e-5,16.70648 -13.29351,30 -30,30 h -504 c -16.70649,0 -30,-13.29351 -30,-30 v -504 c 0,-16.70649 13.29351,-30 30,-30 z"
         style="fill:#ffffff;fill-opacity:1;fill-rule:nonzero;stroke:none" /><path
         style="fill:#ffffff;fill-opacity:1;fill-rule:nonzero;stroke:none"
         d="m 139.72387,70.8015 v 458.397 h 96.69312 V 365.69312 h 73.24736 c 24.1552,0 47.39736,-1.8916 65.74898,-6.43492 79.0681,-19.57552 104.8628,-78.07343 104.8628,-141.12271 2e-4,-69.36925 -35.0554,-147.33399 -172.40239,-147.33399 z m 96.69312,82.36821 h 71.45675 c 60.52219,0 81.33179,32.28458 80.91329,64.68591 -0.422,32.67511 -16.7648,65.46929 -79.68225,65.46929 h -72.68779 z"
         id="rect16151" /></g></g></svg>
