<?xml version="1.0" encoding="UTF-8" standalone="no"?>
<!-- Created with Inkscape (http://www.inkscape.org/) -->

<svg
   width="1430.3375mm"
   height="1081.2944mm"
   viewBox="0 0 1430.3375 1081.2944"
   version="1.1"
   id="svg32138"
   inkscape:version="1.2.1 (9c6d41e410, 2022-07-14)"
   sodipodi:docname="Segnale stradale italiano 1979 - segnale di preavviso di intersezione (esempio fig 82).svg"
   xmlns:inkscape="http://www.inkscape.org/namespaces/inkscape"
   xmlns:sodipodi="http://sodipodi.sourceforge.net/DTD/sodipodi-0.dtd"
   xmlns="http://www.w3.org/2000/svg"
   xmlns:svg="http://www.w3.org/2000/svg">
  <sodipodi:namedview
     id="namedview32140"
     pagecolor="#ffffff"
     bordercolor="#000000"
     borderopacity="0.25"
     inkscape:showpageshadow="2"
     inkscape:pageopacity="0.0"
     inkscape:pagecheckerboard="0"
     inkscape:deskcolor="#d1d1d1"
     inkscape:document-units="mm"
     showgrid="false"
     inkscape:zoom="0.71624579"
     inkscape:cx="3017.1207"
     inkscape:cy="1704.024"
     inkscape:window-width="1920"
     inkscape:window-height="991"
     inkscape:window-x="-9"
     inkscape:window-y="-9"
     inkscape:window-maximized="1"
     inkscape:current-layer="layer1" />
  <defs
     id="defs32135" />
  <g
     inkscape:label="Livello 1"
     inkscape:groupmode="layer"
     id="layer1"
     transform="translate(693.37395,482.28156)">
    <g
       id="g6461"
       transform="translate(-5190.497,-1550.8642)">
      <rect
         style="fill:#000000;fill-opacity:1;stroke-width:1.61631;stroke-dasharray:none;paint-order:fill markers stroke"
         id="rect1779-5-6-64-1"
         width="1430.3375"
         height="1081.2944"
         x="4497.123"
         y="1068.5826" />
      <rect
         style="fill:#ffffff;fill-opacity:1;stroke-width:1.61423;paint-order:fill markers stroke"
         id="rect1779-5"
         width="1428.75"
         height="1079.7069"
         x="4497.9165"
         y="1069.3765" />
      <path
         id="path40046-1-86-0-5-8-6-0-5"
         style="fill:#000000;stroke:none;stroke-width:5.40137;paint-order:fill markers stroke"
         d="M 5757.9081,1430.2348 5650.25,1547.7279 c -8.5496,11.7864 1.3227,20.3881 10.2896,17.4158 l 25.451,-5.3084 c 17.7092,-4.7019 18.1155,-0.1267 16.5434,7.4899 l -58.7738,284.7429 -197.8821,-43.1032 c -7.6001,-1.6552 -11.6084,-3.8895 -0.1055,-18.1612 l 15.1794,-21.1062 c 6.3576,-6.9917 2.4978,-19.4807 -11.7438,-16.4523 l -151.1065,50.684 116.3294,108.9306 c 11.6929,8.677 20.3994,-1.0871 17.5249,-10.0896 l -5.0173,-25.5056 c -4.5089,-17.7592 0.07,-18.1255 7.6536,-16.4704 l 206.1716,44.9029 v 120.5471 h 52.1746 v -149.9795 l 61.5554,-298.2137 c 1.569,-7.6176 3.7463,-11.6569 18.143,-0.3272 l 21.2696,14.9435 c 7.0605,6.2811 19.5262,2.3003 16.3432,-11.9075 z" />
      <rect
         style="fill:#00408b;fill-opacity:1;stroke-width:333.329;paint-order:fill markers stroke"
         id="rect3428-1-3-5-1"
         width="707.6095"
         height="223.06757"
         x="5116.4805"
         y="1193.6639" />
      <g
         id="g68263-4-1-0-5"
         transform="matrix(7.0989362,0,0,7.0989362,-4449.8452,-555.27089)">
        <circle
           style="fill:#ffffff;fill-opacity:1;stroke:#000000;stroke-width:0.264583;stroke-dasharray:none;stroke-opacity:1;paint-order:fill markers stroke"
           id="path20581-0-3-6-4"
           cx="1348.8966"
           cy="328.9744"
           r="10.31875" />
        <circle
           style="fill:none;fill-opacity:1;stroke:#000000;stroke-width:0.264583;stroke-dasharray:none;stroke-opacity:1;paint-order:fill markers stroke"
           id="path20581-1-4-6-0-4-3-0"
           cx="1348.8967"
           cy="328.9743"
           r="9.1723108" />
        <circle
           style="fill:none;fill-opacity:1;stroke:#000000;stroke-width:0.264583;stroke-dasharray:none;stroke-opacity:1;paint-order:fill markers stroke"
           id="path20581-1-4-63-8-0-0"
           cx="1348.8967"
           cy="329.10675"
           r="7.8934469" />
        <circle
           style="fill:none;fill-opacity:1;stroke:#000000;stroke-width:0.264583;stroke-dasharray:none;stroke-opacity:1;paint-order:fill markers stroke"
           id="path20581-1-0-9-5-7"
           cx="1348.8967"
           cy="329.23917"
           r="6.6145835" />
        <circle
           style="fill:#000000;fill-opacity:1;stroke:none;stroke-width:0.29571;stroke-dasharray:none;stroke-opacity:1;paint-order:fill markers stroke"
           id="path66575-9-2-7-9"
           cx="1348.8967"
           cy="328.9743"
           r="3.022727" />
      </g>
      <g
         aria-label="centro"
         id="text17810-4"
         style="font-size:93.0781px;font-family:'Stradale Normale Positivo';-inkscape-font-specification:'Stradale Normale Positivo';stroke-width:767.894;paint-order:fill markers stroke">
        <path
           d="m 4677.7083,1788.191 q -0.2272,0.8636 -0.7726,2.1361 -0.5454,1.2271 -1.4089,2.5451 -0.8181,1.318 -1.727,2.5906 -0.8635,1.2271 -1.5907,2.136 -0.2727,0.3636 -1.6816,1.7271 -1.4089,1.3634 -3.6359,2.8178 -2.2269,1.4089 -5.3174,2.5905 -3.0451,1.1817 -6.7718,1.1817 -4.9539,0 -9.5896,-2.0452 -4.5903,-2.0906 -8.0898,-5.5901 -3.4541,-3.545 -5.5901,-8.408 -2.1361,-4.9084 -2.1361,-10.6803 0,-4.863 1.4543,-9.5442 1.4998,-4.7266 4.5449,-8.4079 3.0904,-3.7268 7.7716,-6.0446 4.7266,-2.3633 11.1803,-2.3633 8.9079,0 14.6344,4.4993 5.7264,4.454 8.4079,11.9075 l -13.7708,4.9084 q -0.7272,-1.6816 -1.4998,-3.1359 -0.7272,-1.4998 -1.7725,-2.5906 -0.9999,-1.1362 -2.4997,-1.727 -1.4543,-0.6363 -3.4995,-0.6363 -2.7269,0 -4.5448,1.1362 -1.818,1.0908 -3.0451,2.9087 -1.1816,1.8179 -1.6816,4.1358 -0.4999,2.3179 -0.4999,4.863 0,2.3178 0.5454,4.6357 0.5454,2.3179 1.6816,4.1812 1.1816,1.8634 2.9996,3.0451 1.8179,1.1362 4.3176,1.1362 1.7724,0 3.3631,-0.7272 1.5907,-0.7272 2.8178,-1.9997 1.2726,-1.2726 2.0906,-2.8633 0.8636,-1.6361 1.1363,-3.4086 z"
           id="path6161" />
        <path
           d="m 4732.3372,1784.6006 h -32.5865 q 1.2272,3.8177 3.9995,5.4538 2.7723,1.5907 6.0446,1.5907 3.3632,0 6.59,-1.318 3.2723,-1.3634 5.3175,-3.5904 l 10.044,10.2259 q -2.3178,2.5905 -5.272,4.3175 -2.9086,1.7271 -6.0446,2.7724 -3.0905,0.9999 -6.3627,1.4089 -3.2269,0.4545 -6.3174,0.4545 -5.4992,0 -9.9531,-2.3179 -4.454,-2.3633 -7.6353,-6.181 -3.1814,-3.8176 -4.9085,-8.7715 -1.6815,-4.9993 -1.6815,-10.2258 0,-5.0903 1.8179,-9.726 1.8179,-4.6812 5.0447,-8.2261 3.2723,-3.545 7.7263,-5.5902 4.4539,-2.0451 9.6804,-2.0451 5.6811,0 10.1805,1.9542 4.5448,1.9543 7.7262,5.3629 3.2268,3.4087 4.9538,8.1807 1.7271,4.7267 1.7271,10.3168 0,1.6361 0.045,3.4541 0.046,1.8179 -0.1363,2.4996 z m -15.7251,-12.2256 q -0.7727,-2.9541 -3.1814,-4.8629 -2.4088,-1.9089 -5.3175,-1.7271 -2.5905,0.1818 -4.6811,1.6816 -2.0907,1.4998 -3.5905,4.9084 z"
           id="path6163" />
        <path
           d="m 4773.9224,1804.7797 v -27.9962 q 0.1817,-4.2267 -2.2725,-6.8172 -2.4087,-2.5906 -5.6355,-2.4088 -1.6816,0.091 -3.136,0.909 -1.4543,0.7726 -2.5451,2.0452 -1.0453,1.2271 -1.6361,2.8632 -0.5909,1.6361 -0.5909,3.4086 l -0.091,27.9962 h -16.2251 l 0.091,-51.1748 h 14.4526 l 0.9998,2.7723 q 1.0453,-0.818 2.5451,-1.4543 1.5453,-0.6817 3.2269,-1.1362 1.6815,-0.5 3.3177,-0.7272 1.6361,-0.2272 3.045,-0.2272 6.1355,0 10.0895,1.9542 3.954,1.9543 6.2265,5.2266 2.2724,3.2723 3.1359,7.5899 0.909,4.3175 0.909,9.1805 v 27.9962 z"
           id="path6165" />
        <path
           d="m 4824.4154,1750.3326 h 12.6801 v 14.907 h -12.6801 v 20.9972 q 0,2.0906 1.4089,2.9541 1.4089,0.8635 3.2723,0.909 1.8634,0.045 3.8631,-0.4091 1.9997,-0.4545 3.2268,-1.0907 l 2.9542,14.3162 q -1.7725,0.7272 -3.8631,1.318 -2.0907,0.5454 -4.1813,0.9089 -2.0906,0.3636 -4.0903,0.5454 -1.9998,0.2273 -3.6813,0.2273 -3.4541,0 -6.4083,-0.9999 -2.9086,-0.9544 -5.0902,-2.8632 -2.1815,-1.9089 -3.454,-4.6812 -1.2271,-2.8178 -1.2271,-6.4537 v -25.6783 h -8.3171 v -14.907 h 8.3171 v -14.5434 l 17.2703,-5.0903 z"
           id="path6167" />
        <path
           d="m 4880.7258,1769.0573 q -1.0907,-0.091 -2.4087,-0.1818 -1.318,-0.1363 -2.6815,0 -1.318,0.091 -2.636,0.3182 -1.318,0.2272 -2.2269,0.6817 -0.5454,0.2727 -1.5907,0.7726 -0.9999,0.4545 -2.0452,1.5907 -0.9999,1.0907 -1.7725,2.9541 -0.7272,1.8634 -0.7272,4.9084 v 24.6785 h -16.0887 l -0.1363,-51.1748 h 16.225 v 3.045 q 1.6816,-0.9998 2.3179,-1.4089 0.6363,-0.4545 1.7725,-0.9998 1.8634,-0.8181 3.7722,-1.0908 1.9088,-0.3181 3.4541,-0.2727 1.5907,0.045 2.8632,0.3182 1.2726,0.2272 1.9088,0.3181 z"
           id="path6169" />
        <path
           d="m 4911.6307,1791.0997 q 5.0902,-0.091 7.6807,-3.454 2.636,-3.3632 2.636,-8.817 0,-2.5451 -0.6817,-4.7721 -0.6363,-2.2269 -1.9088,-3.954 -1.2271,-1.727 -3.1814,-2.6814 -1.9543,-0.9999 -4.5448,-0.9999 -2.7269,0 -4.6357,1.0453 -1.9089,0.9999 -3.136,2.6815 -1.1816,1.6816 -1.727,3.9085 -0.5454,2.227 -0.5454,4.7721 0,2.4996 0.5454,4.7266 0.5454,2.227 1.727,3.9086 1.2271,1.6816 3.136,2.6814 1.9088,0.9544 4.6357,0.9544 z m 0.3636,14.8162 q -5.6811,-0.2273 -10.3622,-2.2724 -4.6358,-2.0452 -7.9535,-5.5902 -3.2723,-3.5904 -5.0902,-8.3625 -1.8179,-4.8175 -1.8179,-10.4076 0,-5.772 1.6815,-10.6349 1.6816,-4.9084 4.863,-8.408 3.2268,-3.4995 7.8626,-5.4538 4.6811,-1.9542 10.544,-1.9542 5.5901,0 10.2713,2.0451 4.7266,2.0452 8.0443,5.6356 3.3632,3.5904 5.2266,8.4534 1.8634,4.8175 1.8634,10.4986 0,5.4083 -1.9089,10.2713 -1.9088,4.8175 -5.272,8.4534 -3.3177,3.5904 -7.9534,5.7264 -4.5903,2.0907 -9.9986,1.9998 z"
           id="path6171" />
      </g>
      <g
         aria-label="AVEZZANO"
         id="text17887"
         style="font-size:93.0781px;font-family:'Stradale Normale Positivo';-inkscape-font-specification:'Stradale Normale Positivo';stroke-width:767.894;paint-order:fill markers stroke">
        <path
           d="m 4663.6827,1605.0989 -7.9989,-24.1785 -7.7262,24.1785 z m -20.8607,15.4524 -3.6813,11.5439 h -17.3158 l 23.5422,-72.5809 h 21.5879 l 23.5422,72.5809 h -17.952 l -3.7268,-11.5439 z"
           id="path6144" />
        <path
           d="m 4749.8981,1559.5143 -18.1793,72.5809 h -18.5883 l -18.7247,-72.5809 h 15.816 l 12.1801,46.0391 11.2712,-46.0391 z"
           id="path6146" />
        <path
           d="m 4763.1236,1632.0952 v -72.5809 h 49.4023 v 15.2252 h -32.7682 v 12.68 h 29.3141 v 15.2707 h -29.1323 v 13.589 h 36.0405 v 15.816 z"
           id="path6148" />
        <path
           d="m 4829.7508,1559.5143 h 50.2658 v 14.0435 l -29.3596,42.0851 h 30.7231 v 16.4523 h -52.4019 v -15.9069 l 28.7688,-41.1307 h -27.9962 z"
           id="path6150" />
        <path
           d="m 4895.5599,1559.5143 h 50.2658 v 14.0435 l -29.3596,42.0851 h 30.7231 v 16.4523 h -52.4019 v -15.9069 l 28.7688,-41.1307 h -27.9962 z"
           id="path6152" />
        <path
           d="m 4999.1366,1605.0989 -7.9989,-24.1785 -7.7262,24.1785 z m -20.8608,15.4524 -3.6813,11.5439 h -17.3158 l 23.5422,-72.5809 h 21.588 l 23.5422,72.5809 h -17.9521 l -3.7267,-11.5439 z"
           id="path6154" />
        <path
           d="m 5055.9924,1587.3286 v 44.7666 h -17.4067 v -72.5809 h 18.2702 l 31.5411,45.8573 v -45.8573 h 16.1796 v 72.5809 h -17.7702 z"
           id="path6156" />
        <path
           d="m 5156.7967,1616.2792 q 4.4994,-0.091 7.6808,-1.6816 3.2268,-1.5907 5.3174,-4.363 2.0906,-2.8178 3.1359,-6.6355 1.0908,-3.8176 1.0908,-8.3625 0,-3.454 -0.8635,-7.1808 -0.8181,-3.7267 -2.8178,-6.8627 -1.9997,-3.1814 -5.3629,-5.2265 -3.3177,-2.0452 -8.2716,-2.0452 -4.4539,0 -7.7716,1.8634 -3.2723,1.8634 -5.4084,4.8629 -2.0906,2.9542 -2.9541,6.8173 -0.8636,3.8631 -0.6818,7.8625 0.2727,4.6358 1.2726,8.408 1.0453,3.7722 3.045,6.5445 1.9998,2.7269 5.0902,4.3176 3.136,1.5907 7.499,1.6816 z m -0.091,16.9522 q -8.2716,0 -14.8161,-2.9541 -6.4991,-2.9996 -11.044,-8.1807 -4.5448,-5.1811 -6.999,-12.0438 -2.4088,-6.9081 -2.4088,-14.7253 0,-8.0897 2.4088,-14.907 2.4542,-6.8627 6.999,-11.8165 4.5449,-4.9994 11.044,-7.7717 6.5445,-2.8178 14.8161,-2.8178 8.4079,0 14.9979,2.8178 6.59,2.7723 11.1349,7.7717 4.5903,4.9538 6.999,11.8165 2.4542,6.8173 2.4542,14.907 0,7.7263 -2.4542,14.6344 -2.4087,6.8627 -6.999,12.0438 -4.5449,5.1357 -11.1349,8.1807 -6.59,3.045 -14.9979,3.045 z"
           id="path6158" />
      </g>
      <g
         aria-label="SORA NAPOLI"
         id="text17891"
         style="font-size:93.0781px;font-family:'Stradale Stretto Negativo';-inkscape-font-specification:'Stradale Stretto Negativo';fill:#ffffff;stroke-width:767.894;paint-order:fill markers stroke">
        <path
           d="m 5287.8148,1230.0723 q 2.5131,0 4.5608,1.7685 2.0477,1.6754 4.1885,5.4916 l 10.5178,-6.7947 q -2.9785,-6.2362 -7.9116,-9.8663 -4.9332,-3.63 -10.7971,-3.7231 -3.7231,0 -7.2601,1.3031 -3.4439,1.3031 -6.1431,3.9093 -2.6062,2.6061 -4.1885,6.3293 -1.5824,3.63 -1.5824,8.377 0,2.7923 0.7447,5.0262 0.7446,2.2339 1.9546,4.1885 1.21,1.8616 2.7923,3.537 1.5824,1.6754 3.1647,3.2577 2.327,2.327 5.3985,4.747 3.0716,2.327 5.8639,4.8401 2.8855,2.42 4.8401,4.84 1.9547,2.4201 2.0477,4.747 0.093,1.0239 -0.2792,2.327 -0.3723,1.3031 -1.21,2.42 -0.8377,1.1169 -2.0477,1.9546 -1.2101,0.7447 -2.6993,0.7447 -1.6754,0 -2.7923,-0.4654 -1.117,-0.4654 -2.0478,-1.4893 -0.9307,-1.0238 -1.8615,-2.6062 -0.9308,-1.5823 -2.2339,-3.9092 l -10.7971,6.3293 q 3.4439,8.377 8.7494,12.1001 5.3054,3.7232 11.0763,3.7232 2.6992,0 5.957,-1.3031 3.3508,-1.3031 6.1431,-3.9093 2.8854,-2.6062 4.8401,-6.5155 2.0477,-4.0023 2.1408,-9.4009 0.093,-4.9331 -1.5823,-8.4701 -1.5824,-3.63 -4.1886,-6.4224 -2.5131,-2.7923 -5.4916,-4.9331 -2.9785,-2.2339 -5.4916,-4.4678 -1.3031,-1.1169 -3.0716,-2.42 -1.6754,-1.3962 -3.2577,-2.7923 -1.4892,-1.3962 -2.6062,-2.7924 -1.0238,-1.4892 -1.0238,-2.8854 0,-3.63 1.6754,-5.2124 1.7685,-1.5823 3.9093,-1.5823 z"
           id="path6203" />
        <path
           d="m 5342.1724,1279.0314 q -1.8616,0 -3.0716,-2.2339 -1.21,-2.3269 -1.9547,-5.8639 -0.7446,-3.6301 -1.1169,-7.9117 -0.2792,-4.3746 -0.2792,-8.5631 0,-4.5609 0.2792,-8.9355 0.3723,-4.3747 1.1169,-7.7255 0.8377,-3.3508 2.0478,-5.3986 1.21,-2.0477 2.9785,-2.0477 1.9546,0 3.2577,1.9547 1.3962,1.9546 2.1408,5.3054 0.8377,3.3508 1.21,7.7255 0.3723,4.3747 0.3723,9.1217 0,4.3746 -0.3723,8.8424 -0.2792,4.3747 -1.0239,7.9116 -0.7446,3.4439 -2.1408,5.6778 -1.3961,2.1408 -3.4438,2.1408 z m 0,14.1479 q 5.4916,-0.1862 9.587,-3.2578 4.0954,-3.1646 6.7947,-8.377 2.7923,-5.3055 4.0954,-12.1002 1.3962,-6.8877 1.3962,-14.5201 0,-7.4463 -1.5823,-14.241 -1.4893,-6.8878 -4.3747,-12.1002 -2.7923,-5.3054 -6.8878,-8.4701 -4.0023,-3.1646 -9.0285,-3.1646 -4.6539,0 -8.5632,2.8854 -3.9093,2.7923 -6.7017,7.9116 -2.7923,5.1193 -4.3746,12.1002 -1.5824,6.9809 -1.5824,15.1717 0,7.4463 1.3962,14.3341 1.3962,6.8877 4.0955,12.1932 2.6992,5.3054 6.6085,8.4701 4.0024,3.1647 9.1217,3.1647 z"
           id="path6205" />
        <path
           d="m 5379.2175,1218.8098 v 72.601 h 13.9617 v -28.1096 h 3.537 l 11.2624,28.1096 h 13.9617 l -14.4271,-31.9258 q 5.1193,-3.8162 7.2601,-8.284 2.1408,-4.4677 2.327,-10.8901 -0.1862,-5.1193 -2.2339,-9.1217 -1.9547,-4.0023 -5.1193,-6.7016 -3.0716,-2.7923 -6.8878,-4.1885 -3.7231,-1.4893 -7.4462,-1.4893 z m 13.9617,11.5417 h 1.21 q 2.1408,0 3.8162,1.0239 1.7685,0.9308 2.9785,2.42 1.3031,1.4893 1.9546,3.2578 0.6516,1.7684 0.6516,3.2577 0,2.5131 -0.8377,4.6539 -0.8377,2.0477 -2.1408,3.537 -1.3031,1.4892 -2.9785,2.3269 -1.6754,0.8377 -3.3508,0.8377 h -1.3031 z"
           id="path6207" />
        <path
           d="m 5473.5056,1291.4108 -11.4487,-72.601 h -20.0117 l -11.4486,72.601 h 13.8686 l 2.0477,-14.3341 h 10.9832 l 2.0477,14.3341 z m -17.4987,-24.945 h -8.0047 l 4.0023,-28.9473 z"
           id="path6209" />
        <path
           d="m 5546.7581,1253.2487 10.7971,38.1621 h 13.7755 v -72.601 h -13.9617 v 37.0451 l -10.704,-37.0451 h -13.8686 v 72.601 h 13.9617 z"
           id="path6211" />
        <path
           d="m 5627.2706,1291.4108 -11.4486,-72.601 h -20.0118 l -11.4486,72.601 h 13.8686 l 2.0478,-14.3341 h 10.9832 l 2.0477,14.3341 z m -17.4987,-24.945 h -8.0047 l 4.0024,-28.9473 z"
           id="path6213" />
        <path
           d="m 5639.8363,1218.8098 v 72.601 h 13.9617 v -28.0165 q 3.1646,0 4.0954,0 1.0239,0 1.0239,0 0,-0.093 -0.4654,-0.093 -0.4654,0 -0.2793,0 3.0716,0 6.5155,-1.5823 3.537,-1.6755 6.5155,-4.654 2.9785,-2.9785 4.9331,-6.9808 1.9547,-4.0954 1.9547,-8.9355 0,-5.3985 -2.0478,-9.5871 -1.9546,-4.1885 -5.1193,-6.9808 -3.1646,-2.8854 -7.167,-4.2816 -3.9093,-1.4893 -7.9116,-1.4893 z m 13.9617,12.4725 h 2.2338 q 2.0478,0 3.6301,1.0239 1.6754,0.9308 2.7923,2.42 1.117,1.3962 1.6754,3.1647 0.6516,1.7684 0.6516,3.2577 0,1.5823 -0.6516,3.2577 -0.5584,1.6754 -1.6754,3.0716 -1.1169,1.3962 -2.7923,2.327 -1.5823,0.9307 -3.6301,0.9307 h -2.2338 z"
           id="path6215" />
        <path
           d="m 5708.3418,1279.0314 q -1.8616,0 -3.0716,-2.2339 -1.21,-2.3269 -1.9546,-5.8639 -0.7447,-3.6301 -1.117,-7.9117 -0.2792,-4.3746 -0.2792,-8.5631 0,-4.5609 0.2792,-8.9355 0.3723,-4.3747 1.117,-7.7255 0.8377,-3.3508 2.0477,-5.3986 1.21,-2.0477 2.9785,-2.0477 1.9546,0 3.2577,1.9547 1.3962,1.9546 2.1408,5.3054 0.8377,3.3508 1.21,7.7255 0.3723,4.3747 0.3723,9.1217 0,4.3746 -0.3723,8.8424 -0.2792,4.3747 -1.0238,7.9116 -0.7447,3.4439 -2.1408,5.6778 -1.3962,2.1408 -3.4439,2.1408 z m 0,14.1479 q 5.4916,-0.1862 9.587,-3.2578 4.0955,-3.1646 6.7947,-8.377 2.7924,-5.3055 4.0955,-12.1002 1.3961,-6.8877 1.3961,-14.5201 0,-7.4463 -1.5823,-14.241 -1.4893,-6.8878 -4.3747,-12.1002 -2.7923,-5.3054 -6.8878,-8.4701 -4.0023,-3.1646 -9.0285,-3.1646 -4.6539,0 -8.5632,2.8854 -3.9093,2.7923 -6.7016,7.9116 -2.7924,5.1193 -4.3747,12.1002 -1.5823,6.9809 -1.5823,15.1717 0,7.4463 1.3961,14.3341 1.3962,6.8877 4.0955,12.1932 2.6992,5.3054 6.6085,8.4701 4.0024,3.1647 9.1217,3.1647 z"
           id="path6217" />
        <path
           d="m 5745.5731,1291.4108 h 26.9926 v -11.914 h -12.8448 v -60.687 h -14.1478 z"
           id="path6219" />
        <path
           d="m 5797.8829,1291.4108 v -72.601 h -13.8686 v 72.601 z"
           id="path6221" />
      </g>
      <g
         aria-label="CONCA DEL FUCINO"
         id="text17895"
         style="font-size:74.4627px;font-family:'Stradale Stretto Negativo';-inkscape-font-specification:'Stradale Stretto Negativo';fill:#ffffff;stroke-width:767.894;paint-order:fill markers stroke">
        <path
           d="m 5190.3017,1390.5629 q 3.3508,0 5.957,-1.4148 2.6807,-1.4893 4.6912,-4.021 2.0105,-2.6062 3.3508,-6.0315 1.4148,-3.4253 2.3083,-7.3718 l -9.6801,-2.9785 q -0.8191,4.9145 -2.3084,7.8186 -1.4892,2.904 -4.3188,2.9785 -1.8616,0 -3.053,-1.6382 -1.1914,-1.6382 -1.936,-4.2444 -0.6702,-2.6806 -0.968,-6.0314 -0.2979,-3.3509 -0.2979,-6.7017 0,-4.0954 0.2979,-7.6697 0.2978,-3.6486 0.968,-6.3293 0.7446,-2.7551 1.8616,-4.3188 1.1914,-1.6382 2.904,-1.6382 1.6382,0 2.6807,0.8191 1.1169,0.7446 1.8615,2.2339 0.7447,1.4148 1.117,3.4253 0.4468,1.936 0.7446,4.3188 l 9.6057,-1.2659 q -0.2234,-4.3933 -1.4893,-8.1909 -1.1914,-3.872 -3.3508,-6.7016 -2.0849,-2.8296 -4.989,-4.3933 -2.8296,-1.6382 -6.1804,-1.6382 -3.2019,0 -5.7336,1.4148 -2.5317,1.4148 -4.4678,3.7976 -1.936,2.3828 -3.3508,5.5847 -1.3403,3.1274 -2.2339,6.6272 -0.8191,3.4997 -1.2658,7.1484 -0.3724,3.5742 -0.3724,6.8506 0,2.4572 0.3724,5.5847 0.3723,3.1274 1.1914,6.4782 0.8935,3.2764 2.2338,6.4038 1.4148,3.1275 3.3509,5.6592 1.936,2.4573 4.5422,3.9465 2.6062,1.4893 5.957,1.4893 z"
           id="path6174" />
        <path
           d="m 5231.1817,1379.2445 q -1.4892,0 -2.4572,-1.7871 -0.9681,-1.8615 -1.5638,-4.6911 -0.5957,-2.9041 -0.8935,-6.3294 -0.2234,-3.4997 -0.2234,-6.8505 0,-3.6487 0.2234,-7.1484 0.2978,-3.4998 0.8935,-6.1804 0.6702,-2.6807 1.6382,-4.3189 0.968,-1.6382 2.3828,-1.6382 1.5637,0 2.6062,1.5638 1.117,1.5637 1.7127,4.2443 0.6701,2.6807 0.968,6.1804 0.2978,3.4998 0.2978,7.2974 0,3.4997 -0.2978,7.0739 -0.2234,3.4998 -0.8191,6.3294 -0.5957,2.7551 -1.7127,4.5422 -1.1169,1.7126 -2.7551,1.7126 z m 0,11.3184 q 4.3933,-0.149 7.6697,-2.6062 3.2763,-2.5318 5.4358,-6.7017 2.2338,-4.2443 3.2763,-9.6801 1.117,-5.5103 1.117,-11.6162 0,-5.957 -1.2659,-11.3928 -1.1914,-5.5102 -3.4997,-9.6802 -2.2339,-4.2443 -5.5103,-6.7761 -3.2019,-2.5317 -7.2229,-2.5317 -3.7231,0 -6.8505,2.3084 -3.1275,2.2338 -5.3614,6.3293 -2.2338,4.0954 -3.4997,9.6801 -1.2659,5.5847 -1.2659,12.1375 0,5.957 1.117,11.4672 1.1169,5.5103 3.2763,9.7546 2.1595,4.2444 5.2869,6.7761 3.2019,2.5318 7.2973,2.5318 z"
           id="path6176" />
        <path
           d="m 5271.8384,1358.6184 8.6377,30.5297 h 11.0204 v -58.0809 h -11.1694 v 29.6361 l -8.5632,-29.6361 h -11.0949 v 58.0809 h 11.1694 z"
           id="path6178" />
        <path
           d="m 5320.0902,1390.5629 q 3.3508,0 5.957,-1.4148 2.6807,-1.4893 4.6912,-4.021 2.0104,-2.6062 3.3508,-6.0315 1.4148,-3.4253 2.3083,-7.3718 l -9.6801,-2.9785 q -0.8191,4.9145 -2.3084,7.8186 -1.4892,2.904 -4.3188,2.9785 -1.8616,0 -3.053,-1.6382 -1.1914,-1.6382 -1.936,-4.2444 -0.6702,-2.6806 -0.968,-6.0314 -0.2979,-3.3509 -0.2979,-6.7017 0,-4.0954 0.2979,-7.6697 0.2978,-3.6486 0.968,-6.3293 0.7446,-2.7551 1.8616,-4.3188 1.1914,-1.6382 2.904,-1.6382 1.6382,0 2.6807,0.8191 1.1169,0.7446 1.8615,2.2339 0.7446,1.4148 1.117,3.4253 0.4467,1.936 0.7446,4.3188 l 9.6057,-1.2659 q -0.2234,-4.3933 -1.4893,-8.1909 -1.1914,-3.872 -3.3508,-6.7016 -2.085,-2.8296 -4.989,-4.3933 -2.8296,-1.6382 -6.1804,-1.6382 -3.2019,0 -5.7336,1.4148 -2.5318,1.4148 -4.4678,3.7976 -1.936,2.3828 -3.3508,5.5847 -1.3403,3.1274 -2.2339,6.6272 -0.8191,3.4997 -1.2659,7.1484 -0.3723,3.5742 -0.3723,6.8506 0,2.4572 0.3723,5.5847 0.3724,3.1274 1.1914,6.4782 0.8936,3.2764 2.2339,6.4038 1.4148,3.1275 3.3508,5.6592 1.9361,2.4573 4.5423,3.9465 2.6062,1.4893 5.957,1.4893 z"
           id="path6180" />
        <path
           d="m 5376.8308,1389.1481 -9.1589,-58.0809 h -16.0095 l -9.1589,58.0809 h 11.0949 l 1.6382,-11.4673 h 8.7866 l 1.6382,11.4673 z m -13.999,-19.956 h -6.4038 l 3.2019,-23.1579 z"
           id="path6182" />
        <path
           d="m 5435.2841,1340.4495 h 1.4147 q 1.4893,0 2.9786,1.2658 1.5637,1.2659 2.8295,3.7232 1.2659,2.3828 2.0105,5.8825 0.8191,3.4253 0.8191,7.8931 0,5.3613 -0.7446,9.1589 -0.7446,3.7231 -1.936,6.1059 -1.1914,2.3084 -2.6807,3.3508 -1.4892,1.0425 -3.053,1.0425 -0.3723,0 -0.8191,0.074 -0.4467,0 -0.819,-0.1489 z m -10.8716,48.6986 h 11.1694 q 3.5742,0 7.1484,-1.6382 3.6487,-1.7127 6.6272,-5.2869 2.9785,-3.6486 4.7656,-9.2333 1.8616,-5.6592 1.8616,-13.4778 0,-7.1484 -1.7871,-12.5097 -1.7127,-5.3613 -4.4678,-8.8611 -2.6806,-3.5742 -6.0315,-5.2868 -3.2763,-1.7871 -6.4782,-1.7871 h -12.8076 z"
           id="path6184" />
        <path
           d="m 5466.484,1389.1481 h 24.945 v -9.3823 h -13.7756 v -16.0095 h 9.6057 v -9.0845 h -9.6057 v -14.4457 h 11.3928 v -9.1589 h -22.5622 z"
           id="path6186" />
        <path
           d="m 5503.1196,1389.1481 h 21.5942 v -9.5313 h -10.2759 v -48.5496 h -11.3183 z"
           id="path6188" />
        <path
           d="m 5571.6997,1389.1481 h 11.1694 v -25.1684 h 9.9035 v -8.9355 h -9.9035 v -14.8181 h 11.6906 v -9.1589 h -22.86 z"
           id="path6190" />
        <path
           d="m 5614.9625,1331.0672 h -11.1694 v 40.2098 q 0,5.4358 1.2659,9.1589 1.3403,3.6487 3.5742,5.9571 2.2339,2.2338 5.1379,3.2018 2.9041,0.9681 6.0315,0.9681 2.9041,0 5.7336,-1.0425 2.9041,-0.968 5.138,-3.2019 2.2338,-2.3084 3.5742,-5.957 1.4148,-3.7232 1.4148,-9.0845 v -40.2098 h -11.1694 v 40.2098 q 0,3.053 -0.2979,4.9146 -0.2978,1.8615 -0.968,2.904 -0.5957,0.968 -1.4893,1.3403 -0.819,0.3723 -1.936,0.3723 -2.5317,0 -3.7231,-2.0849 -1.117,-2.1594 -1.117,-7.5207 z"
           id="path6192" />
        <path
           d="m 5664.8526,1390.5629 q 3.3508,0 5.957,-1.4148 2.6806,-1.4893 4.6911,-4.021 2.0105,-2.6062 3.3509,-6.0315 1.4148,-3.4253 2.3083,-7.3718 l -9.6801,-2.9785 q -0.8191,4.9145 -2.3084,7.8186 -1.4892,2.904 -4.3188,2.9785 -1.8616,0 -3.053,-1.6382 -1.1914,-1.6382 -1.936,-4.2444 -0.6702,-2.6806 -0.968,-6.0314 -0.2979,-3.3509 -0.2979,-6.7017 0,-4.0954 0.2979,-7.6697 0.2978,-3.6486 0.968,-6.3293 0.7446,-2.7551 1.8615,-4.3188 1.1914,-1.6382 2.9041,-1.6382 1.6382,0 2.6806,0.8191 1.117,0.7446 1.8616,2.2339 0.7446,1.4148 1.117,3.4253 0.4467,1.936 0.7446,4.3188 l 9.6057,-1.2659 q -0.2234,-4.3933 -1.4893,-8.1909 -1.1914,-3.872 -3.3508,-6.7016 -2.085,-2.8296 -4.989,-4.3933 -2.8296,-1.6382 -6.1804,-1.6382 -3.2019,0 -5.7336,1.4148 -2.5318,1.4148 -4.4678,3.7976 -1.936,2.3828 -3.3508,5.5847 -1.3404,3.1274 -2.2339,6.6272 -0.8191,3.4997 -1.2659,7.1484 -0.3723,3.5742 -0.3723,6.8506 0,2.4572 0.3723,5.5847 0.3723,3.1274 1.1914,6.4782 0.8936,3.2764 2.2339,6.4038 1.4148,3.1275 3.3508,5.6592 1.9361,2.4573 4.5423,3.9465 2.6062,1.4893 5.957,1.4893 z"
           id="path6194" />
        <path
           d="m 5702.6052,1389.1481 v -58.0809 h -11.095 v 58.0809 z"
           id="path6196" />
        <path
           d="m 5728.9649,1358.6184 8.6377,30.5297 h 11.0205 v -58.0809 h -11.1694 v 29.6361 l -8.5632,-29.6361 h -11.095 v 58.0809 h 11.1694 z"
           id="path6198" />
        <path
           d="m 5777.5145,1379.2445 q -1.4892,0 -2.4572,-1.7871 -0.9681,-1.8615 -1.5638,-4.6911 -0.5957,-2.9041 -0.8935,-6.3294 -0.2234,-3.4997 -0.2234,-6.8505 0,-3.6487 0.2234,-7.1484 0.2978,-3.4998 0.8935,-6.1804 0.6702,-2.6807 1.6382,-4.3189 0.968,-1.6382 2.3828,-1.6382 1.5637,0 2.6062,1.5638 1.117,1.5637 1.7127,4.2443 0.6701,2.6807 0.968,6.1804 0.2978,3.4998 0.2978,7.2974 0,3.4997 -0.2978,7.0739 -0.2234,3.4998 -0.8191,6.3294 -0.5957,2.7551 -1.7126,4.5422 -1.117,1.7126 -2.7552,1.7126 z m 0,11.3184 q 4.3933,-0.149 7.6697,-2.6062 3.2763,-2.5318 5.4358,-6.7017 2.2338,-4.2443 3.2763,-9.6801 1.117,-5.5103 1.117,-11.6162 0,-5.957 -1.2659,-11.3928 -1.1914,-5.5102 -3.4997,-9.6802 -2.2339,-4.2443 -5.5103,-6.7761 -3.2019,-2.5317 -7.2229,-2.5317 -3.7231,0 -6.8505,2.3084 -3.1275,2.2338 -5.3614,6.3293 -2.2338,4.0954 -3.4997,9.6801 -1.2659,5.5847 -1.2659,12.1375 0,5.957 1.117,11.4672 1.1169,5.5103 3.2763,9.7546 2.1595,4.2444 5.2869,6.7761 3.2019,2.5318 7.2973,2.5318 z"
           id="path6200" />
      </g>
      <rect
         style="fill:#ffffff;fill-opacity:1;stroke:none;stroke-width:1.53579;stroke-dasharray:none;stroke-opacity:1;paint-order:fill markers stroke"
         id="rect18623"
         width="102.38599"
         height="55.846905"
         x="5143.7236"
         y="1222.9976" />
      <rect
         style="fill:none;fill-opacity:1;stroke:#00408b;stroke-width:1.53579;stroke-dasharray:none;stroke-opacity:1;paint-order:fill markers stroke"
         id="rect18623-9"
         width="99.314415"
         height="52.775326"
         x="5145.252"
         y="1224.5376"
         rx="6.9110546"
         ry="6.9157085" />
      <g
         id="g6230">
        <path
           d="m 5170.616,1247.011 q -0.3518,-0.3342 -0.9674,-0.9308 -0.5945,-0.5956 -1.4142,-1.1542 -0.8197,-0.5956 -1.7871,-1.0051 -0.9323,-0.4468 -1.9349,-0.4468 -0.8548,0 -2.0474,0.2603 -1.1539,0.2217 -2.1952,0.9309 -1.0413,0.7074 -1.7484,1.9359 -0.7071,1.2285 -0.7071,3.1647 0,1.1542 0.2814,1.9359 0.3518,0.7448 0.8549,1.3403 0.5594,0.5956 1.2278,1.117 0.6684,0.5213 1.4142,1.1542 0.6684,0.5956 1.1151,0.9309 0.4468,0.3342 0.781,0.5955 0.3729,0.2217 0.6684,0.4841 0.3518,0.2603 0.7458,0.7075 0.4855,0.5955 0.5207,1.1542 0.035,0.5213 -0.2111,0.8935 -0.2111,0.3722 -0.7071,0.5587 -0.4468,0.1477 -0.8936,0.039 -0.5593,-0.1126 -0.9322,-0.3342 -0.3729,-0.2252 -0.7071,-0.4841 -0.2814,-0.299 -0.5945,-0.6702 -0.2815,-0.4094 -0.6333,-0.8562 l -4.0582,2.5691 q 1.6006,2.2339 3.2013,3.3881 1.6393,1.1543 3.9464,1.1543 1.8996,0 3.2013,-0.5956 1.3403,-0.5956 2.16,-1.4519 0.8197,-0.8935 1.1925,-1.8989 0.4116,-1.0424 0.4116,-1.936 0,-0.9308 -0.1407,-1.7125 -0.1407,-0.782 -0.8196,-1.6383 -0.6333,-0.8562 -1.9349,-1.8989 -1.3016,-1.0797 -3.5373,-2.6434 -1.0061,-0.7447 -1.379,-1.3776 -0.3518,-0.6702 -0.2111,-1.1542 0.1056,-0.5214 0.5946,-0.819 0.4854,-0.299 1.1538,-0.299 0.5946,0 1.1152,0.299 0.5207,0.2603 1.5268,1.2657 z"
           id="path18629"
           style="font-size:1.05833px;font-family:'Stradale Stretto Negativo';-inkscape-font-specification:'Stradale Stretto Negativo';fill:#00408b;fill-opacity:1;stroke-width:767.894;paint-order:fill markers stroke" />
        <path
           d="m 5186.365,1247.011 q -0.3518,-0.3342 -0.9674,-0.9308 -0.5945,-0.5956 -1.4142,-1.1542 -0.8197,-0.5956 -1.7871,-1.0051 -0.9323,-0.4468 -1.9349,-0.4468 -0.8548,0 -2.0474,0.2603 -1.1539,0.2217 -2.1952,0.9309 -1.0413,0.7074 -1.7484,1.9359 -0.7071,1.2285 -0.7071,3.1647 0,1.1542 0.2815,1.9359 0.3517,0.7448 0.8548,1.3403 0.5594,0.5956 1.2278,1.117 0.6684,0.5213 1.4142,1.1542 0.6684,0.5956 1.1187,0.9309 0.4467,0.3342 0.7809,0.5955 0.3729,0.2217 0.672,0.4841 0.3517,0.2603 0.7458,0.7075 0.4854,0.5955 0.5206,1.1542 0.035,0.5213 -0.2111,0.8935 -0.211,0.3722 -0.7071,0.5587 -0.4467,0.1477 -0.8935,0.039 -0.5594,-0.1126 -0.9323,-0.3342 -0.3729,-0.2252 -0.7071,-0.4841 -0.2814,-0.299 -0.5945,-0.6702 -0.2814,-0.4094 -0.6332,-0.8562 l -4.0583,2.5691 q 1.6007,2.2339 3.2013,3.3881 1.6394,1.1543 3.9464,1.1543 1.8997,0 3.2013,-0.5956 1.3403,-0.5956 2.16,-1.4519 0.8197,-0.8935 1.1926,-1.8989 0.4081,-1.0424 0.4081,-1.936 0,-0.9308 -0.1407,-1.7125 -0.1408,-0.782 -0.8197,-1.6383 -0.6332,-0.8562 -1.9349,-1.8989 -1.3016,-1.0797 -3.5369,-2.6434 -1.0061,-0.7447 -1.379,-1.3776 -0.3518,-0.6702 -0.2111,-1.1542 0.1056,-0.5214 0.5945,-0.819 0.4855,-0.299 1.1539,-0.299 0.5945,0 1.1187,0.299 0.5207,0.2603 1.5268,1.2657 z"
           id="path18631"
           style="font-size:1.05833px;font-family:'Stradale Stretto Negativo';-inkscape-font-specification:'Stradale Stretto Negativo';fill:#00408b;fill-opacity:1;stroke-width:767.894;paint-order:fill markers stroke" />
        <path
           d="m 5205.8738,1265.5894 q 1.7133,0.074 3.1662,-0.5583 1.488,-0.6329 2.568,-1.8617 1.08,-1.2288 1.7133,-2.9786 0.6332,-1.7498 0.6332,-3.9465 0,-1.2658 -0.3729,-2.3458 -0.3518,-1.1169 -0.9323,-1.9359 -0.5593,-0.8563 -1.3016,-1.4522 -0.7458,-0.6329 -1.5268,-0.9681 0.4081,-0.3722 0.9675,-0.819 0.5593,-0.4841 1.0413,-1.1915 0.4854,-0.7448 0.8196,-1.7871 0.3518,-1.0797 0.3518,-2.6434 0,-1.7498 -0.5945,-3.202 -0.5593,-1.4891 -1.5268,-2.5318 -0.9674,-1.0797 -2.2725,-1.6753 -1.3017,-0.5955 -2.7933,-0.5955 -1.3403,0 -2.6806,0.5586 -1.3017,0.5214 -2.3465,1.5637 -1.0061,1.0424 -1.6393,2.6061 -0.6332,1.5264 -0.6332,3.5369 0,1.4149 0.1758,2.3458 0.2111,0.9308 0.5946,1.601 0.4081,0.6702 0.9674,1.1915 0.5594,0.4841 1.2665,1.0797 -0.6685,0.3722 -1.3017,0.9681 -0.5945,0.5586 -1.08,1.3776 -0.4854,0.819 -0.781,1.899 -0.2814,1.0796 -0.3517,2.4199 0,2.2339 0.6332,3.9838 0.6332,1.7125 1.7132,2.9413 1.08,1.1915 2.4942,1.7871 1.4529,0.6329 3.0149,0.6329 z m -0.211,-25.8012 q 0.8548,-0.039 1.4529,1.0051 0.5945,1.0054 0.5945,2.7921 0,1.8617 -0.5945,2.8668 -0.5946,0.9681 -1.4529,0.9681 -0.7458,0 -1.3404,-0.8563 -0.5593,-0.8562 -0.5593,-2.9786 0,-1.7498 0.5206,-2.7921 0.5207,-1.0424 1.3791,-1.0051 z m 0.2814,12.4352 q 1.0413,0 1.5655,1.1542 0.5593,1.117 0.5593,3.0529 0,1.8244 -0.5593,2.9413 -0.5594,1.1169 -1.4881,1.1169 -0.8197,0 -1.4881,-1.1169 -0.6719,-1.1169 -0.6719,-2.9413 0,-1.9359 0.5593,-3.0529 0.5594,-1.1542 1.5268,-1.1542 z"
           id="path18633"
           style="font-size:1.05833px;font-family:'Stradale Stretto Negativo';-inkscape-font-specification:'Stradale Stretto Negativo';fill:#00408b;fill-opacity:1;stroke-width:767.894;paint-order:fill markers stroke" />
        <path
           d="m 5231.8614,1248.0907 q 1.0061,-1.8986 1.1926,-4.1326 0.211,-2.2712 -0.4855,-4.2072 -0.7071,-1.9732 -2.3817,-3.3135 -1.6393,-1.3403 -4.3931,-1.3403 -1.1187,0 -2.459,0.5586 -1.3017,0.5214 -2.4204,1.6753 -1.1152,1.1542 -1.8609,2.9786 -0.7071,1.7871 -0.6685,4.2816 h 4.7285 q 0,-0.5214 0.07,-1.1916 0.1056,-0.7074 0.3729,-1.3403 0.2815,-0.6329 0.8197,-1.0423 0.5207,-0.4468 1.379,-0.4468 0.9675,0 1.3404,0.8562 0.3729,0.819 0.2462,2.1221 -0.1055,1.303 -0.6332,2.8667 -0.5207,1.5637 -1.3403,3.0156 -1.08,1.8986 -1.9349,3.4623 -0.8197,1.5264 -1.5619,2.8295 -0.7458,1.2657 -1.4142,2.3826 -0.6685,1.117 -1.4143,2.1966 v 4.5794 h 13.8501 v -5.2495 h -7.1111 q 1.5267,-2.9041 3.0148,-5.7709 1.5268,-2.8667 3.0536,-5.7708 z"
           id="path18635"
           style="font-size:1.05833px;font-family:'Stradale Stretto Negativo';-inkscape-font-specification:'Stradale Stretto Negativo';fill:#00408b;fill-opacity:1;stroke-width:767.894;paint-order:fill markers stroke" />
      </g>
      <g
         id="g4184-7-1"
         transform="matrix(1.3191564,0,0,1.3191564,5112.054,1598.6962)">
        <g
           id="g14-7-5-3"
           transform="matrix(0.09350932,0,0,0.09350932,361.73059,7.174622)">
          <path
             d="m 1703.699,858.477 c 0,467.703 -379.144,846.847 -846.847,846.847 C 389.148,1705.324 10,1326.18 10,858.477 10,390.773 389.148,11.625 856.852,11.625 c 467.703,0 846.847,379.148 846.847,846.852 z"
             style="fill:#ffffff;fill-opacity:1;fill-rule:evenodd;stroke:#000000;stroke-width:3.99272;stroke-linecap:butt;stroke-linejoin:miter;stroke-miterlimit:4;stroke-dasharray:none;stroke-opacity:1"
             id="path16-6-5-2"
             inkscape:connector-curvature="0" />
        </g>
        <path
           d="m 441.84582,9.8034495 c -42.77284,0 -77.44657,34.7672325 -77.44657,77.6550955 0,42.887585 34.67373,77.654815 77.44657,77.654815 42.77285,0 77.44648,-34.76723 77.44648,-77.654815 0,-42.887863 -34.67363,-77.6550955 -77.44648,-77.6550955 z m 0.0255,19.9942565 c 31.59923,0 57.21751,25.790618 57.21751,57.601367 0,31.810277 -25.61828,57.592577 -57.21751,57.592577 -31.5996,0 -57.2091,-25.7823 -57.2091,-57.592577 0,-31.810749 25.6095,-57.601367 57.2091,-57.601367 z"
           style="fill:#d40000;fill-opacity:1;fill-rule:evenodd;stroke:none;stroke-width:0.0935093"
           id="path18-2-2-7"
           inkscape:connector-curvature="0" />
        <g
           id="g4171-8-5">
          <rect
             style="color:#000000;display:inline;overflow:visible;visibility:visible;fill:#000000;fill-opacity:1;fill-rule:nonzero;stroke:none;stroke-width:5.29167;marker:none;enable-background:accumulate"
             id="rect2999-5-1"
             width="64.426155"
             height="26.469864"
             x="423.10995"
             y="69.242439"
             ry="0.66145831"
             rx="0.66145831" />
          <path
             style="color:#000000;display:inline;overflow:visible;visibility:visible;fill:#000000;fill-opacity:1;fill-rule:nonzero;stroke:none;stroke-width:5.29167;marker:none;enable-background:accumulate"
             d="m 409.11198,76.891465 c -1.61697,0 -2.24978,0.644755 -2.53008,1.438672 l -3.05924,8.665104 h -1.46348 c -1.17291,0 -2.19187,1.159539 -2.27376,2.158008 l -0.90124,10.988481 c -0.0401,0.48875 -0.51885,0.94113 -0.9095,1.05006 l -0.11576,2.96003 2.86908,0.17363 h 0.19017 c 0.0134,-5.296515 4.30802,-9.582878 9.60768,-9.582878 5.30795,0 9.60768,4.29973 9.60768,9.607678 0,0.0636 10e-4,0.1269 0,0.19017 h 37.54603 c -10e-4,-0.0633 -0.008,-0.12655 -0.008,-0.19017 0,-4.867036 3.9469,-8.813928 8.81394,-8.813928 4.86704,0 8.81393,3.946892 8.81393,8.813928 0,0.0636 -0.007,0.12687 -0.008,0.19017 h 2.7864 c 0.18448,0 0.34487,-0.20914 0.39687,-0.31419 l 0.82682,-1.67018 c 0.15206,-0.30743 0.40515,-0.49304 0.69454,-0.57051 l 7.14375,-1.90996 c 0.18687,-0.0501 0.37207,-0.195702 0.37207,-0.479558 v -1.570963 c 0,-0.254961 -0.19056,-0.454753 -0.44649,-0.454753 h -10.9554 c -2.13124,-3.019557 -5.64592,-4.99401 -9.62422,-4.99401 -3.9783,0 -7.49298,1.974453 -9.62422,4.99401 h -34.95807 c -0.52677,0 -0.8599,-0.453692 -0.8599,-0.826823 V 78.288796 c 0,-0.676556 -0.79611,-1.397331 -1.67845,-1.397331 z m -2.13061,2.10013 h 1.8743 l -2.46394,8.003646 h -2.22982 z m 2.99051,0 h 7.01972 c 0.51816,0 0.92605,0.416277 0.92605,0.959115 v 6.275586 c 0,0.390975 -0.45359,0.768945 -0.89297,0.768945 h -9.525 z"
             id="path3809-7-6"
             inkscape:connector-curvature="0"
             sodipodi:nodetypes="sscsssccccssccssscsccccssscscsssssccccccsssscc" />
          <path
             style="color:#000000;display:inline;overflow:visible;visibility:visible;fill:#000000;fill-opacity:1;fill-rule:nonzero;stroke:none;stroke-width:0.913604;marker:none;enable-background:accumulate"
             d="m 410.52585,96.85097 c -4.14231,0 -7.49928,3.35698 -7.49928,7.49928 0,4.14231 3.35697,7.49929 7.49928,7.49929 4.14231,0 7.49928,-3.35698 7.49928,-7.49929 0,-4.1423 -3.35697,-7.49928 -7.49928,-7.49928 z m 0,4.47311 c 1.66993,0 3.02617,1.35624 3.02617,3.02617 0,1.66994 -1.35624,3.01791 -3.02617,3.01791 -1.66993,0 -3.02617,-1.34797 -3.02617,-3.01791 0,-1.66993 1.35624,-3.02617 3.02617,-3.02617 z"
             id="path3782-3-7" />
          <path
             id="path3787-7-1"
             d="m 466.4853,96.85097 c -4.1423,0 -7.49928,3.35698 -7.49928,7.49928 0,4.14231 3.35698,7.49929 7.49928,7.49929 4.14231,0 7.49929,-3.35698 7.49929,-7.49929 0,-4.1423 -3.35698,-7.49928 -7.49929,-7.49928 z m 0,4.47311 c 1.66994,0 3.02617,1.35624 3.02617,3.02617 0,1.66994 -1.35623,3.01791 -3.02617,3.01791 -1.66993,0 -3.02617,-1.34797 -3.02617,-3.01791 0,-1.66993 1.35624,-3.02617 3.02617,-3.02617 z"
             style="color:#000000;display:inline;overflow:visible;visibility:visible;fill:#000000;fill-opacity:1;fill-rule:nonzero;stroke:none;stroke-width:0.913604;marker:none;enable-background:accumulate"
             inkscape:connector-curvature="0" />
        </g>
      </g>
      <rect
         style="fill:none;fill-opacity:1;stroke:#000000;stroke-width:21.4312;stroke-dasharray:none;stroke-opacity:1;paint-order:fill markers stroke"
         id="rect1779-5-6-6-4"
         width="1385.8875"
         height="1036.8444"
         x="4519.3477"
         y="1090.8077"
         rx="96.440628"
         ry="96.440628" />
    </g>
  </g>
</svg>
