<?xml version="1.0" encoding="UTF-8" standalone="no"?>
<!-- Created with Inkscape (http://www.inkscape.org/) -->

<svg
   xmlns:dc="http://purl.org/dc/elements/1.1/"
   xmlns:cc="http://creativecommons.org/ns#"
   xmlns:rdf="http://www.w3.org/1999/02/22-rdf-syntax-ns#"
   xmlns:svg="http://www.w3.org/2000/svg"
   xmlns="http://www.w3.org/2000/svg"
   xmlns:sodipodi="http://sodipodi.sourceforge.net/DTD/sodipodi-0.dtd"
   xmlns:inkscape="http://www.inkscape.org/namespaces/inkscape"
   width="89.915993mm"
   height="70.859467mm"
   viewBox="0 0 89.915993 70.859467"
   version="1.1"
   id="svg1101"
   inkscape:version="0.92.5 (2060ec1f9f, 2020-04-08)"
   sodipodi:docname="treno.svg">
  <defs
     id="defs1095" />
  <sodipodi:namedview
     id="base"
     pagecolor="#ffffff"
     bordercolor="#666666"
     borderopacity="1.0"
     inkscape:pageopacity="0.0"
     inkscape:pageshadow="2"
     inkscape:zoom="2.2440838"
     inkscape:cx="169.92001"
     inkscape:cy="133.90765"
     inkscape:document-units="mm"
     inkscape:current-layer="layer1"
     showgrid="false"
     inkscape:window-width="1440"
     inkscape:window-height="829"
     inkscape:window-x="0"
     inkscape:window-y="0"
     inkscape:window-maximized="1"
     fit-margin-top="0"
     fit-margin-left="0"
     fit-margin-right="0"
     fit-margin-bottom="0" />
  <metadata
     id="metadata1098">
    <rdf:RDF>
      <cc:Work
         rdf:about="">
        <dc:format>image/svg+xml</dc:format>
        <dc:type
           rdf:resource="http://purl.org/dc/dcmitype/StillImage" />
        <dc:title></dc:title>
      </cc:Work>
    </rdf:RDF>
  </metadata>
  <g
     inkscape:label="Livello 1"
     inkscape:groupmode="layer"
     id="layer1"
     transform="translate(-109.25628,-120.20717)">
    <g
       id="g1072"
       transform="matrix(0.34397172,0,0,0.34397172,-272.80628,11.944647)"
       style="fill:#000000;fill-opacity:1">
      <path
         id="rect991"
         d="m 1154.1543,393.17578 v 9.17188 l 4.4473,19.56836 h -21.2637 l -7.2344,11.33593 -7.2344,11.33594 7.2344,11.33594 7.2344,11.33594 v -0.0957 h 157.7598 v -45.24804 h -11.0059 v -6.41993 h -66.3457 v 6.41993 h -42.9941 l 4.4726,-19.56836 h 0.3047 v -9.17188 z m 145.2246,22.01367 v 6.11524 28.12695 20.79102 H 1126.332 v 18.95507 h -15.5937 v 7.33789 h 11.9648 a 13.403656,13.403657 0 0 0 -5.2265,10.58204 13.403656,13.403657 0 0 0 13.3574,13.43359 13.403656,13.403657 0 0 0 13.4492,-13.34375 v -0.0605 a 13.403656,13.403657 0 0 0 -5.2422,-10.61133 h 17.6289 a 24.213058,23.024023 0 0 0 -0.064,1.15626 24.213058,23.024023 0 0 0 24.1308,23.07421 24.213058,23.024023 0 0 0 24.2949,-22.91797 v -0.10546 a 24.213058,23.024023 0 0 0 -0.045,-1.20704 h 3.6836 a 24.213058,23.024023 0 0 0 -0.064,1.15626 24.213058,23.024023 0 0 0 24.1308,23.07421 24.213058,23.024023 0 0 0 24.2949,-22.91797 v -0.10546 a 24.213058,23.024023 0 0 0 -0.045,-1.20704 h 7.6836 a 24.213058,23.024023 0 0 0 -0.064,1.15626 24.213058,23.024023 0 0 0 24.1308,23.07421 24.213058,23.024023 0 0 0 24.2949,-22.91797 v -0.10546 a 24.213058,23.024023 0 0 0 -0.045,-1.20704 h 17.7168 a 13.403656,13.403657 0 0 0 -5.2265,10.58204 13.403656,13.403657 0 0 0 13.3574,13.43359 13.403656,13.403657 0 0 0 13.4492,-13.34375 v -0.0605 a 13.403656,13.403657 0 0 0 -5.2422,-10.61133 h 25.1016 v -7.33789 h -60.5352 v -4.89257 h 39.4395 v -34.85352 h -22.6231 v -28.12695 h 34.5469 v -6.11524 z"
         style="fill:#000000;fill-opacity:1;stroke:none;stroke-width:15.11811066;stroke-linecap:square;stroke-linejoin:miter;stroke-miterlimit:4;stroke-dasharray:none;stroke-opacity:1"
         inkscape:connector-curvature="0" />
      <path
         sodipodi:nodetypes="ccsccccccscscsccccscsccscsscc"
         inkscape:connector-curvature="0"
         id="path1052"
         d="m 1163.989,386.77568 7.7828,0.43237 c 0,0 1.9457,-9.29608 5.6209,-15.13316 3.6752,-5.83707 9.2961,-7.56658 9.2961,-7.56658 0,0 2.5942,-0.64856 2.6483,1.29713 0.054,1.94569 6.2694,5.29661 12.647,8.48538 6.3775,3.18877 21.9536,-2.28653 21.9536,-2.28653 0,0 6.7262,-3.97457 12.0002,-10.16572 5.2739,-6.19116 10.0893,-0.68791 10.0893,-0.68791 0,0 8.4841,10.62433 19.7199,10.01286 11.2358,-0.61147 18.9829,-7.62805 18.9829,-7.62805 0,0 1.6755,-1.9457 4.7562,-1.0269 3.0807,0.9188 7.0261,1.8376 7.0261,1.8376 0,0 4.5473,5.3651 12.9551,5.21223 8.4077,-0.15286 12.0766,-3.74526 15.8218,-5.35038 3.7453,-1.60511 8.102,-15.0575 6.1912,-18.42059 -1.9109,-3.3631 -3.6689,-12.15301 -10.7772,-14.8282 -7.1376,-2.68193 -10.3644,-4.37905 -17.8091,-1.52868 -3.4345,1.24701 -5.1988,4.14719 -7.8727,5.96185 -1.4751,1.00108 -6.4969,2.21659 -8.2549,-0.0764 -1.758,-2.29302 -8.6371,-10.39502 -19.9493,-10.93006 -11.3122,-0.53504 -19.1849,8.3313 -19.1849,8.3313 0,0 -3.8982,4.20387 -8.102,-0.30573 -4.2039,-4.50961 -9.9282,-16.43738 -29.4932,-17.62641 -19.565,-1.18903 -28.5368,22.91593 -28.5368,22.91593 -0.099,-0.54675 0.6938,1.27571 -1.8376,10.16083 -1.4046,4.93002 -12.9713,15.88982 -15.2413,29.40157 -2.27,13.51175 -0.4324,9.51228 -0.4324,9.51228 z"
         style="fill:#000000;fill-opacity:1;stroke:none;stroke-width:1.00157475;stroke-linecap:butt;stroke-linejoin:miter;stroke-miterlimit:4;stroke-dasharray:none;stroke-opacity:1" />
    </g>
  </g>
</svg>
